<svg width="135" height="131" viewBox="0 0 135 131" fill="none" xmlns="http://www.w3.org/2000/svg">
<g id="OBJECTS">
<g id="&#60;Group&#62;">
<g id="&#60;Group&#62;_2">
<g id="&#60;Group&#62;_3">
<path id="&#60;Path&#62;" d="M134.966 88.7856V0H18.6406V88.7856H134.966Z" fill="white"/>
<path id="&#60;Path&#62;_2" opacity="0.5" d="M134.966 88.7856V0H18.6406V88.7856H134.966Z" fill="url(#paint0_linear_2020_909)"/>
<g id="&#60;Path&#62;_3" style="mix-blend-mode:multiply" opacity="0.3">
<path d="M93.5434 30.5016H23.4272V29.5442H93.5434V30.5016Z" fill="#4A8BE0"/>
</g>
<g id="&#60;Path&#62;_4" style="mix-blend-mode:multiply" opacity="0.3">
<path d="M93.5434 33.0564H23.4272V32.0708H93.5434V33.0564Z" fill="#4A8BE0"/>
</g>
<g id="&#60;Path&#62;_5" style="mix-blend-mode:multiply" opacity="0.3">
<path d="M93.5434 35.5918H23.4272V34.6062H93.5434V35.5918Z" fill="#4A8BE0"/>
</g>
<g id="&#60;Path&#62;_6" style="mix-blend-mode:multiply" opacity="0.3">
<path d="M93.5434 38.1184H23.4272V37.1328H93.5434V38.1184Z" fill="#4A8BE0"/>
</g>
<g id="&#60;Path&#62;_7" style="mix-blend-mode:multiply" opacity="0.3">
<path d="M93.5434 40.6603H23.4272V39.7029H93.5434V40.6603Z" fill="#4A8BE0"/>
</g>
<g id="&#60;Path&#62;_8" style="mix-blend-mode:multiply" opacity="0.3">
<path d="M93.5434 43.1957H23.4272V42.2383H93.5434V43.1957Z" fill="#4A8BE0"/>
</g>
<g id="&#60;Path&#62;_9" style="mix-blend-mode:multiply" opacity="0.3">
<path d="M93.5434 45.7311H23.4272V44.7737H93.5434V45.7311Z" fill="#4A8BE0"/>
</g>
<g id="&#60;Path&#62;_10" style="mix-blend-mode:multiply" opacity="0.3">
<path d="M93.5434 48.2944H23.4272V47.3088H93.5434V48.2944Z" fill="#4A8BE0"/>
</g>
<g id="&#60;Path&#62;_11" style="mix-blend-mode:multiply" opacity="0.3">
<path d="M93.5434 50.8298H23.4272V49.8442H93.5434V50.8298Z" fill="#4A8BE0"/>
</g>
<g id="&#60;Path&#62;_12" style="mix-blend-mode:multiply" opacity="0.3">
<path d="M93.5434 53.3652H23.4272V52.3796H93.5434V53.3652Z" fill="#4A8BE0"/>
</g>
<g id="&#60;Path&#62;_13" style="mix-blend-mode:multiply" opacity="0.3">
<path d="M93.5434 55.8918H23.4272V54.9062H93.5434V55.8918Z" fill="#4A8BE0"/>
</g>
<g id="&#60;Path&#62;_14" style="mix-blend-mode:multiply" opacity="0.3">
<path d="M93.5434 58.434H23.4272V57.4766H93.5434V58.434Z" fill="#4A8BE0"/>
</g>
<g id="&#60;Path&#62;_15" style="mix-blend-mode:multiply" opacity="0.3">
<path d="M93.5434 60.9691H23.4272V60.0117H93.5434V60.9691Z" fill="#4A8BE0"/>
</g>
<g id="&#60;Path&#62;_16" style="mix-blend-mode:multiply" opacity="0.3">
<path d="M93.5434 71.1301H23.4272V70.1445H93.5434V71.1301Z" fill="#4A8BE0"/>
</g>
<g id="&#60;Path&#62;_17" style="mix-blend-mode:multiply" opacity="0.3">
<path d="M93.5434 73.672H23.4272V72.7146H93.5434V73.672Z" fill="#4A8BE0"/>
</g>
<g id="&#60;Path&#62;_18" style="mix-blend-mode:multiply" opacity="0.3">
<path d="M93.5434 76.2074H23.4272V75.25H93.5434V76.2074Z" fill="#4A8BE0"/>
</g>
<g id="&#60;Path&#62;_19" style="mix-blend-mode:multiply" opacity="0.3">
<path d="M93.5434 78.734H23.4272V77.7766H93.5434V78.734Z" fill="#4A8BE0"/>
</g>
<g id="&#60;Path&#62;_20" style="mix-blend-mode:multiply" opacity="0.3">
<path d="M93.5434 81.2976H23.4272V80.312H93.5434V81.2976Z" fill="#4A8BE0"/>
</g>
<g id="&#60;Group&#62;_4">
<path id="&#60;Path&#62;_21" d="M58.2038 77.9513C58.2038 77.9513 60.6818 82.0625 60.71 86.0329C60.7381 90.0034 58.3164 92.6785 54.881 92.6503C51.4738 92.594 45.1098 91.2142 41.8434 93.2416L39.9849 52.3828L51.3611 69.7288L58.2038 77.9513Z" fill="#2E4E76"/>
<g id="&#60;Group&#62;_5">
<path id="&#60;Path&#62;_22" d="M90.8968 26.9727C90.8968 26.9727 99.9359 20.7496 101.71 21.6225C103.484 22.4954 102.358 24.1568 97.3453 27.0009C97.3453 27.0009 99.3164 28.7468 97.4579 30.9432C97.4579 30.9432 98.0211 33.1114 94.4731 34.7447C90.8969 36.406 87.9683 34.7165 87.9683 34.7165L87.208 31.3092L90.8968 26.9727Z" fill="#ECA0A4"/>
<g id="&#60;Path&#62;_23" style="mix-blend-mode:multiply" opacity="0.5">
<path d="M95.9938 27.622C95.9938 27.622 96.2472 29.8184 92.84 29.6213C92.84 29.6213 93.8819 35.3376 86.8984 34.0423L90.193 31.4235L92.1079 27.2278L95.9938 27.622Z" fill="#CE808B"/>
</g>
<path id="&#60;Path&#62;_24" d="M85.6592 31.6456C85.6592 31.6456 87.4614 27.9567 90.0238 26.1827C92.6145 24.3805 96.6976 26.4924 95.8809 28.2101C95.0925 29.8997 92.2203 28.9423 92.2203 28.9423C92.2203 28.9423 93.2903 33.5604 87.9964 34.4615L85.6592 31.6456Z" fill="#ECA0A4"/>
</g>
<path id="&#60;Path&#62;_25" d="M84.0542 30.8679L86.5603 29.46C86.5603 29.46 88.616 32.304 89.3481 35.5705L87.4051 36.9784L84.0542 30.8679Z" fill="white"/>
<path id="&#60;Path&#62;_26" d="M40.6606 39.091C44.4903 42.0477 47.3907 46.0745 48.7986 50.4954C48.9394 50.8615 49.0521 51.2557 49.39 51.481C49.7279 51.7344 50.2347 51.7063 50.6571 51.6781C52.3279 51.5843 53.9987 51.4622 55.6694 51.312C59.5178 51.0305 63.3569 50.6738 67.1865 50.242C69.4111 49.9886 71.6638 49.707 73.6068 48.7214C75.6624 47.6795 85.0957 40.0766 88.5874 37.2607C88.1087 35.4303 87.3203 33.6563 86.3065 32.0231L84.448 29.5732L81.8292 30.7278C76.7043 33.3466 71.3259 35.543 65.9757 37.7394C64.5395 38.3307 63.0753 38.9221 61.5265 39.2036C60.5691 39.3726 59.5835 39.4289 58.6261 39.5134C54.712 39.7387 50.7979 39.9639 46.912 39.7668C44.8 39.6823 42.7163 39.4852 40.6606 39.091Z" fill="#4A8BE0"/>
<g id="&#60;Path&#62;_27" style="mix-blend-mode:multiply" opacity="0.5">
<path d="M40.6606 39.0874C44.4903 42.0441 47.3907 46.0709 48.7986 50.4918C48.9394 50.8579 49.0521 51.2521 49.39 51.4774C49.7279 51.7308 50.2347 51.7027 50.6571 51.6745C52.3279 51.5807 53.9987 51.4586 55.6694 51.3084C53.3041 46.099 49.7279 42.2412 46.912 39.7632C44.8 39.6787 42.7163 39.4816 40.6606 39.0874Z" fill="#2E4E76"/>
</g>
<path id="&#60;Path&#62;_28" d="M31.1997 130.215L46.8843 129.511C47.7291 120.359 47.5038 105.857 47.2504 97.2122C47.1096 92.8757 46.997 90.0034 46.997 90.0034L31.2279 91.4677V106.11L31.1997 130.215Z" fill="#2E4E76"/>
<g id="&#60;Path&#62;_29" style="mix-blend-mode:multiply" opacity="0.5">
<path d="M31.2275 106.11C38.6615 103.661 44.0962 99.8591 47.25 97.2122C47.1093 92.8757 46.9966 90.0034 46.9966 90.0034L31.2275 91.4677V106.11Z" fill="#2E4E76"/>
</g>
<path id="&#60;Path&#62;_30" d="M13.769 131.004L34.2407 130.075C35.8739 124.133 36.8877 112.785 37.479 103.549C37.9859 95.6924 38.1548 89.3848 38.1548 89.3848L13.938 92.7639L13.8535 108.364L13.769 131.004Z" fill="#4A8BE0"/>
<g id="&#60;Path&#62;_31" style="mix-blend-mode:multiply" opacity="0.5">
<path d="M13.8535 108.364C23.5402 108.871 31.4811 106.506 37.479 103.549C37.9859 95.6924 38.1548 89.3848 38.1548 89.3848L13.938 92.7639L13.8535 108.364Z" fill="#2E4E76"/>
</g>
<path id="&#60;Path&#62;_32" d="M37.6759 39.4294C37.2536 38.4157 36.7467 37.4301 36.1554 36.4727C35.7611 35.825 35.2824 35.1774 34.5784 34.8395C34.0997 34.6142 33.5366 34.5297 32.9734 34.4734C30.2701 34.22 27.5668 34.0792 24.8636 34.1073C22.8361 34.1355 19.5133 34.0792 18.1336 35.8813C17.8801 36.2192 18.7531 36.3037 18.7531 36.7261C18.7249 37.2893 19.0065 37.8243 19.2599 38.3312C21.7379 42.8929 23.8499 47.5955 25.9336 52.3262C27.2289 55.2266 28.5524 58.127 29.6225 61.0837C32.8608 69.982 34.2124 79.4998 33.5366 88.8767C33.5084 89.4399 33.3394 90.51 33.8745 90.876C34.1279 91.0168 34.4095 91.0732 34.6911 91.1013C37.9294 91.4674 41.3929 91.3547 44.6312 90.876C45.3352 90.7916 46.0955 90.6508 46.7432 90.3692C47.2782 90.1439 47.7851 89.806 48.0948 89.3273C48.4609 88.7923 48.2919 88.4825 48.2356 87.9193C48.0948 86.5395 47.8977 85.1597 47.8695 83.7518C47.8414 81.8088 47.7851 79.8658 47.6724 77.9229C47.4471 74.0369 47.0248 70.1791 46.2082 66.3776C45.7858 64.4347 45.2789 62.5198 44.772 60.605C44.1901 58.4462 43.6175 56.2873 43.0543 54.1284C41.928 49.9609 40.2948 45.9905 38.6897 41.9355C38.3799 41.0908 38.042 40.2742 37.6759 39.4294Z" fill="white"/>
<g id="&#60;Path&#62;_33" style="mix-blend-mode:multiply">
<path d="M47.2786 79.3018C47.4475 79.865 47.3912 80.4845 47.1096 81.0195C46.997 81.2448 46.8562 81.47 46.7717 81.6953C46.6027 82.1459 46.6309 82.6246 46.6309 83.0751C46.6027 85.8065 44.6316 88.2845 42.0973 89.3264C39.5911 90.3683 36.6907 90.143 34.1283 89.1575C33.8748 89.0448 33.5932 88.9322 33.4243 88.6788C33.2553 88.4253 33.2553 88.0874 33.2835 87.7495C33.368 86.1726 33.734 84.5675 34.3254 83.0751C34.4099 82.9062 34.4943 82.709 34.6351 82.5682C34.8322 82.4275 35.0575 82.3993 35.2828 82.3711C37.1976 82.2022 39.1406 82.2022 40.9146 81.4982C41.9565 81.0758 42.9139 80.4 43.9558 79.865C44.9695 79.3581 46.1522 79.0202 47.2786 79.3018Z" fill="#CCCCCC"/>
</g>
<path id="&#60;Path&#62;_34" d="M51.1083 55.3445C51.587 56.9778 52.0094 58.611 52.5726 60.1879C53.1921 61.9619 53.9524 63.6233 54.769 65.2565C56.2896 68.4104 57.951 71.5079 59.1337 74.9714C60.3445 78.4068 61.1048 82.2928 60.7106 86.0379C59.725 83.7289 58.3734 81.7859 57.0499 79.8711C55.5669 77.731 54.0838 75.5909 52.6008 73.4508C47.2224 65.6226 40.8303 57.8507 37.592 47.9669C37.0006 46.0802 36.4656 44.1372 35.9588 42.1661C35.3017 39.5754 34.6353 36.9848 33.9595 34.3942C36.1277 33.662 40.1545 35.4642 42.0974 36.9848C43.8433 38.3083 44.2375 39.2375 45.5047 41.3213C48.0109 45.4607 49.6722 50.473 51.1083 55.3445Z" fill="#4A8BE0"/>
<path id="&#60;Path&#62;_35" d="M9.68614 98.0838C9.51718 99.3509 10.4746 100.477 11.7417 100.59C24.0191 101.407 32.2416 100.534 34.8603 100.196C35.4235 100.111 35.8459 99.6888 35.9586 99.1538C36.3528 96.8166 36.4091 93.4938 36.1557 89.6642C36.0149 86.9891 35.7051 84.0324 35.2827 80.9912C34.2408 73.2193 32.4668 64.7434 30.4394 58.126C26.3282 44.7505 19.0068 35.2045 19.0068 35.2045L20.4711 34.5569C14.5295 34.8103 10.6154 38.0205 7.48973 41.3714C6.1381 42.8357 6.72943 47.4819 7.88395 52.7195C9.34822 59.4214 11.7417 67.1369 12.1078 70.3471C12.4457 73.6135 11.5446 82.7089 10.6999 90.0584C10.3056 93.2967 9.93957 96.169 9.68614 98.0838Z" fill="#4A8BE0"/>
<g id="&#60;Path&#62;_36" style="mix-blend-mode:multiply" opacity="0.5">
<path d="M10.6997 90.049C22.9207 92.3299 28.3836 87.74 28.3836 87.74L30.5237 87.4021C32.2977 88.6692 34.466 89.345 36.1555 89.6548C36.0147 86.9797 35.705 84.023 35.2826 80.9818L14.8954 78.8135C14.8954 78.8135 16.8102 74.7023 18.2463 60.3975C19.6824 46.0927 12.7835 41.4746 12.7835 41.4746L10.9531 41.8688C10.9531 41.8688 9.4607 46.4024 7.88379 52.7101C9.34806 59.4119 11.7416 67.1275 12.1077 70.3377C12.4456 73.6041 11.5445 82.6995 10.6997 90.049Z" fill="#2E4E76"/>
</g>
<path id="&#60;Path&#62;_37" d="M20.3584 25.2083L20.8371 29.3195L21.4003 34.2473C23.1743 38.8091 32.1852 42.8077 32.1852 42.8077C32.1852 42.8077 32.7202 40.921 32.3823 37.5982C32.326 37.0632 32.2697 36.5282 32.2134 35.9369C31.8755 32.8394 31.5657 29.2632 31.5657 29.2632L20.3584 25.2083Z" fill="#ECA0A4"/>
<g id="&#60;Path&#62;_38" style="mix-blend-mode:multiply" opacity="0.5">
<path d="M20.3584 25.2083L20.8371 29.3195C24.7794 33.9376 29.7354 35.4582 32.2134 35.9369C31.8755 32.8394 31.5657 29.2632 31.5657 29.2632L20.3584 25.2083Z" fill="#CE808B"/>
</g>
<path id="&#60;Path&#62;_39" d="M23.7936 27.7706C20.6961 26.1937 17.317 24.2789 16.3033 20.8716C15.3177 17.577 17.0636 13.9163 19.7387 11.8326C21.569 10.3965 23.8781 9.55169 26.159 9.63616C29.0312 9.72064 31.6781 11.6073 33.5648 13.7192C34.2125 14.395 34.8038 15.2398 34.7193 16.1972C34.6911 16.7041 34.4377 17.211 34.5222 17.7178C34.5785 18.1965 34.9446 18.5908 35.2825 18.9287C35.7894 19.4543 36.2962 19.9799 36.8031 20.5056C37.0284 20.759 37.2536 21.0406 37.2255 21.3785C37.1973 21.7727 36.8031 22.0262 36.4933 22.2796C34.9446 23.7157 36.606 25.546 36.8312 27.0948C37.0565 28.728 35.8457 30.1923 34.3814 30.6992C32.9735 31.1779 31.4247 30.9244 29.9886 30.4739C27.8203 29.8262 25.7929 28.8125 23.7936 27.7706Z" fill="#ECA0A4"/>
<path id="&#60;Path&#62;_40" d="M22.2732 20.7576C22.7238 20.1944 23.4841 19.9691 24.188 20.0255C24.892 20.0818 25.5678 20.4478 26.1029 20.8984C26.5534 21.2645 27.1729 21.715 27.6235 21.3489C27.9895 21.011 27.8487 20.4197 27.6516 19.941C27.3137 19.0962 26.9664 18.242 26.6097 17.3785C26.1873 16.3085 25.7368 15.0413 26.3 13.9994C26.8068 13.042 27.9895 12.7041 29.0596 12.5351C30.1296 12.3943 31.3123 12.3099 32.1007 11.5777C32.9737 10.7611 33.1426 9.29685 32.6639 8.17049C32.1571 7.07228 31.1433 6.25566 30.017 5.86144C28.8906 5.43905 27.6798 5.35458 26.4971 5.32642C25.6242 5.32642 24.7794 5.35458 23.9346 5.49537C22.7519 5.72064 21.5974 6.14302 20.4992 6.64989C18.8941 7.35386 17.2609 8.19864 16.0219 9.4658C14.1916 11.268 13.2342 13.9431 13.2623 16.5619C13.2623 19.1807 14.2197 21.7713 15.7121 23.8833C16.0782 24.3901 16.4725 24.897 16.923 25.3194C17.8241 26.1641 18.9505 26.7836 19.8234 27.6566C20.3866 28.2197 20.8371 28.8956 21.4285 29.4306C21.9916 29.9656 22.7519 30.4162 23.5404 30.3317C23.822 30.3317 24.1317 30.219 24.2725 29.9375C24.357 29.8248 24.3852 29.6559 24.3852 29.5151C24.4415 28.614 23.9065 27.8255 23.4277 27.0652C22.7238 25.8825 22.1043 24.5872 21.879 23.1793C21.7382 22.3627 21.7664 21.4334 22.2732 20.7576Z" fill="#231F20"/>
<path id="&#60;Path&#62;_41" d="M36.578 87.9647C36.5498 88.3871 36.8595 88.7532 37.2538 88.7813L42.2379 89.26L52.6005 90.2456C53.0228 90.3019 53.3889 89.9922 53.4452 89.5698L55.5572 66.9862C55.6135 66.5638 55.3037 66.1977 54.8814 66.1414L39.3375 64.5645C38.887 64.5364 38.5209 64.8461 38.4928 65.2685L37.0567 82.2203L36.578 87.9647Z" fill="#CCCCCC"/>
<path id="&#60;Path&#62;_42" d="M54.065 66.8311L40.0137 65.4231C39.5913 65.3668 39.2252 65.6766 39.197 66.0989L37.3948 87.3027C37.3667 87.697 37.6764 88.063 38.0988 88.1193L51.9249 89.4428C52.3473 89.471 52.7134 89.1612 52.7415 88.7388L54.7409 67.6758C54.769 67.2535 54.4874 66.8874 54.065 66.8311Z" fill="#E6E6E6"/>
<g id="&#60;Path&#62;_43" style="mix-blend-mode:multiply" opacity="0.5">
<path d="M36.578 87.9748C36.5498 88.3972 36.8595 88.7632 37.2538 88.7914L42.2379 89.2701C44.6878 88.1719 46.6026 85.7502 46.6307 83.0751C46.6307 82.6246 46.6026 82.1459 46.7715 81.6953C46.856 81.47 46.9968 81.2448 47.1094 81.0195C47.391 80.4845 47.4474 79.865 47.2784 79.3018C46.152 79.0202 44.9694 79.3581 43.9556 79.865C42.9137 80.4 41.9563 81.0758 40.9144 81.4982C39.6754 81.9769 38.3801 82.1459 37.0567 82.2303L36.578 87.9748Z" fill="#CCCCCC"/>
</g>
<path id="&#60;Path&#62;_44" d="M27.6797 77.9467C27.6797 77.9467 29.9887 77.7496 32.3541 76.3135C33.5368 75.5532 34.8884 74.7648 36.3245 74.6803C37.6198 74.624 38.2675 75.6095 39.5065 75.9475C41.6466 76.5106 43.843 76.8485 45.9268 77.5807C46.3773 77.7496 46.8279 77.9186 47.1939 78.2283C47.56 78.5099 47.8416 78.9605 47.8416 79.4392C47.8416 79.9179 47.56 80.3684 47.1376 80.6219C46.7434 80.8753 46.2365 80.9316 45.7578 80.8753C46.0113 82.1143 45.0539 83.4378 43.8149 83.6067C44.0401 84.0854 43.9556 84.7049 43.6177 85.1273C43.2798 85.5497 42.6885 85.7468 42.1816 85.6342C42.0408 86.141 41.5621 86.5634 41.0553 86.7324C40.5202 86.9295 39.9571 86.9295 39.422 86.9013C38.352 86.8168 37.1412 86.6479 36.1556 86.1973C35.2545 85.8031 34.3816 85.606 33.4241 85.3244C32.5794 85.0428 31.7628 84.6486 31.0025 84.1699C30.5707 83.8883 30.1483 83.588 29.7353 83.2688C29.5382 83.0999 28.6089 82.4804 28.5808 82.2269L27.6797 77.9467Z" fill="#ECA0A4"/>
<path id="&#60;Path&#62;_45" d="M26.6659 75.645L30.0169 75.9266L29.4818 84.0646L25.5396 84.2335L26.6659 75.645Z" fill="white"/>
<path id="&#60;Path&#62;_46" d="M0.815917 54.7982C-0.929946 69.4409 0.449852 81.7746 2.98417 83.2389C5.51849 84.7031 12.5019 87.4627 27.3418 85.3227L27.8205 75.0164L13.0933 73.9745C13.0933 73.9745 15.9092 65.4987 16.2752 53.7563C16.3597 51.0812 16.1345 48.3498 15.3178 45.7873C14.6983 43.8443 13.6001 41.4508 11.5164 40.775C10.2774 40.3807 9.06653 40.5779 7.91201 41.141C5.77192 42.1829 4.56106 44.0696 3.46286 46.1252C1.99859 48.8003 1.18198 51.757 0.815917 54.7982Z" fill="#4A8BE0"/>
</g>
<g id="&#60;Group&#62;_6" opacity="0.5">
<g id="&#60;Group&#62;_7">
<g id="&#60;Group&#62;_8">
<path id="&#60;Path&#62;_47" d="M123.589 18.1148C123.589 22.3105 120.182 25.7178 116.015 25.7178C111.819 25.7178 108.412 22.3105 108.412 18.1148C108.412 13.9473 111.819 10.54 116.015 10.54C120.182 10.54 123.589 13.9473 123.589 18.1148Z" fill="#4A8BE0"/>
<g id="&#60;Path&#62;_48" style="mix-blend-mode:multiply">
<path d="M122.379 18.1149C122.379 21.663 119.535 24.507 116.015 24.507C112.467 24.507 109.623 21.663 109.623 18.1149C109.623 14.595 112.467 11.751 116.015 11.751C119.535 11.751 122.379 14.595 122.379 18.1149Z" fill="#4A8BE0"/>
</g>
</g>
<g id="&#60;Group&#62;_9">
<path id="&#60;Path&#62;_49" d="M117.254 20.0054C117.254 20.0617 117.169 20.118 117.085 20.118H114.917C114.832 20.118 114.748 20.0617 114.748 20.0054C114.748 19.9772 114.832 19.9209 114.917 19.9209H117.085C117.169 19.9209 117.254 19.9772 117.254 20.0054Z" fill="white"/>
<path id="&#60;Path&#62;_50" d="M117.141 20.3646C117.141 20.4209 117.085 20.4772 117 20.4772H115.001C114.917 20.4772 114.86 20.4209 114.86 20.3646C114.86 20.3083 114.917 20.252 115.001 20.252H117C117.085 20.252 117.141 20.3083 117.141 20.3646Z" fill="white"/>
<path id="&#60;Path&#62;_51" d="M117.085 20.7394C117.085 20.7957 117.028 20.852 116.944 20.852H115.057C114.973 20.852 114.917 20.7957 114.917 20.7394C114.917 20.683 114.973 20.6267 115.057 20.6267H116.944C117.028 20.6267 117.085 20.683 117.085 20.7394Z" fill="white"/>
<path id="&#60;Path&#62;_52" d="M116.86 20.9839H115.142C115.057 20.9839 115.029 21.0402 115.029 21.1247C115.029 21.181 115.057 21.2655 115.142 21.2655H115.339C115.339 21.35 115.424 21.4344 115.536 21.4344H116.465C116.578 21.4344 116.663 21.35 116.663 21.2655H116.86C116.944 21.2655 116.972 21.181 116.972 21.1247C116.972 21.0402 116.944 20.9839 116.86 20.9839Z" fill="white"/>
<g id="&#60;Group&#62;_10">
<path id="&#60;Path&#62;_53" d="M116.212 18.7919C116.212 18.7356 116.24 18.6511 116.296 18.623L116.409 18.5666C116.634 18.4259 116.747 18.1724 116.747 17.919C116.747 17.4966 116.409 17.1587 116.015 17.1587C115.592 17.1587 115.254 17.4966 115.254 17.919C115.254 18.1724 115.367 18.4259 115.592 18.5666L115.705 18.623C115.761 18.6511 115.789 18.7356 115.789 18.7919V19.7493H115.818H116.184H116.212V18.7919Z" fill="white"/>
<path id="&#60;Path&#62;_54" d="M116.015 14.8237C114.776 14.8237 113.791 15.8093 113.791 17.0201C113.791 17.8086 114.185 18.5126 114.804 18.9068V19.6389C114.804 19.6952 114.861 19.7516 114.917 19.7516H115.367V18.9068C115.03 18.6815 114.832 18.3155 114.832 17.9212C114.832 17.2736 115.367 16.7667 116.015 16.7667C116.635 16.7667 117.17 17.2736 117.17 17.9212C117.17 18.3155 116.972 18.6815 116.635 18.9068V19.7516H117.085C117.141 19.7516 117.198 19.6952 117.198 19.6389V18.9068C117.817 18.5126 118.211 17.8086 118.211 17.0201C118.211 15.8093 117.226 14.8237 116.015 14.8237Z" fill="white"/>
</g>
</g>
</g>
<g id="&#60;Group&#62;_11">
<g id="&#60;Group&#62;_12">
<path id="&#60;Path&#62;_55" d="M123.589 45.9102C123.589 50.106 120.182 53.485 116.015 53.485C111.819 53.485 108.412 50.106 108.412 45.9102C108.412 41.7145 111.819 38.3354 116.015 38.3354C120.182 38.3354 123.589 41.7145 123.589 45.9102Z" fill="#4A8BE0"/>
<g id="&#60;Path&#62;_56" style="mix-blend-mode:multiply">
<path d="M122.379 45.9124C122.379 49.4323 119.535 52.3045 116.015 52.3045C112.467 52.3045 109.623 49.4323 109.623 45.9124C109.623 42.3925 112.467 39.5203 116.015 39.5203C119.535 39.5203 122.379 42.3925 122.379 45.9124Z" fill="#4A8BE0"/>
</g>
</g>
<path id="&#60;Compound Path&#62;" fill-rule="evenodd" clip-rule="evenodd" d="M119.112 46.4826H118.38C118.305 46.7455 118.202 46.9801 118.07 47.1866L118.605 47.7216C118.69 47.8061 118.69 47.9188 118.605 48.0032L118.098 48.5101C118.014 48.5946 117.873 48.5946 117.789 48.5101L117.282 48.0032C117.057 48.1346 116.822 48.2285 116.578 48.2848V49.017C116.578 49.1296 116.465 49.2422 116.353 49.2422H115.649C115.536 49.2422 115.423 49.1296 115.423 49.017V48.2848C115.179 48.2285 114.945 48.1346 114.719 48.0032L114.212 48.5101C114.128 48.5946 113.987 48.5946 113.903 48.5101L113.396 48.0032C113.311 47.9188 113.311 47.8061 113.396 47.7216L113.931 47.1866C113.799 46.9801 113.696 46.7455 113.621 46.4826H112.889C112.776 46.4826 112.692 46.3982 112.692 46.2855V45.5534C112.692 45.4407 112.776 45.3563 112.889 45.3563H113.621C113.696 45.0935 113.799 44.8588 113.931 44.6523L113.396 44.1173C113.311 44.0328 113.311 43.9202 113.396 43.8357L113.903 43.3288C113.987 43.2443 114.128 43.2443 114.212 43.3288L114.719 43.8357C114.945 43.7043 115.179 43.6104 115.423 43.5541V42.822C115.423 42.6812 115.536 42.5967 115.649 42.5967H116.353C116.465 42.5967 116.578 42.6812 116.578 42.822V43.5541C116.822 43.6104 117.057 43.7043 117.282 43.8357L117.789 43.3288C117.873 43.2443 118.014 43.2443 118.098 43.3288L118.605 43.8357C118.69 43.9202 118.69 44.0328 118.605 44.1173L118.07 44.6523C118.202 44.8588 118.305 45.0935 118.38 45.3563H119.112C119.225 45.3563 119.309 45.4407 119.309 45.5534V46.2855C119.309 46.3982 119.225 46.4826 119.112 46.4826ZM117.254 46.2292C117.479 45.2718 116.662 44.4552 115.705 44.6523C115.226 44.7649 114.832 45.131 114.748 45.6097C114.522 46.5671 115.339 47.3837 116.296 47.1866C116.775 47.074 117.169 46.6797 117.254 46.2292Z" fill="white"/>
</g>
<g id="&#60;Group&#62;_13">
<g id="&#60;Group&#62;_14">
<path id="&#60;Path&#62;_57" d="M123.589 73.7005C123.589 77.8962 120.182 81.3035 116.015 81.3035C111.819 81.3035 108.412 77.8962 108.412 73.7005C108.412 69.533 111.819 66.1257 116.015 66.1257C120.182 66.1257 123.589 69.533 123.589 73.7005Z" fill="#4A8BE0"/>
<g id="&#60;Path&#62;_58" style="mix-blend-mode:multiply">
<path d="M122.379 73.7006C122.379 77.2487 119.535 80.0927 116.015 80.0927C112.467 80.0927 109.623 77.2487 109.623 73.7006C109.623 70.1807 112.467 67.3367 116.015 67.3367C119.535 67.3367 122.379 70.1807 122.379 73.7006Z" fill="#4A8BE0"/>
</g>
</g>
<g id="&#60;Group&#62;_15">
<path id="&#60;Path&#62;_59" d="M119.168 72.2682V72.2963L118.52 72.6061C118.689 72.944 118.774 73.3101 118.774 73.7043C118.774 75.1404 117.619 76.2949 116.211 76.2949C114.775 76.2949 113.621 75.1404 113.621 73.7043C113.621 72.2963 114.775 71.1418 116.211 71.1418C117.113 71.1418 117.929 71.6205 118.38 72.3526L118.689 72.1837L118.802 71.6487C118.183 70.8884 117.253 70.4097 116.211 70.4097C114.381 70.4097 112.889 71.8739 112.889 73.7043C112.889 75.5628 114.381 77.0271 116.211 77.0271C118.042 77.0271 119.506 75.5628 119.506 73.7043C119.506 73.1974 119.393 72.6905 119.168 72.2682Z" fill="white"/>
<path id="&#60;Path&#62;_60" d="M117.366 73.172C117.441 73.341 117.479 73.5193 117.479 73.7071C117.479 74.4392 116.916 75.0024 116.183 75.0024C115.479 75.0024 114.888 74.4392 114.888 73.7071C114.888 73.0031 115.479 72.4117 116.183 72.4117C116.634 72.4117 117.056 72.6652 117.282 73.0031L117.901 72.637C117.535 72.0738 116.916 71.7078 116.183 71.7078C115.085 71.7078 114.184 72.6089 114.184 73.7071C114.184 74.8334 115.085 75.7345 116.183 75.7345C117.31 75.7345 118.211 74.8334 118.211 73.7071C118.211 73.3973 118.126 73.1157 118.014 72.8623L117.366 73.172Z" fill="white"/>
<path id="&#60;Path&#62;_61" d="M116.211 73.7368L116.155 73.6805L116.662 73.3708C116.549 73.23 116.38 73.1455 116.211 73.1455C115.874 73.1455 115.62 73.3989 115.62 73.7087C115.62 74.0466 115.874 74.3 116.211 74.3C116.521 74.3 116.775 74.0466 116.775 73.7087C116.775 73.6336 116.756 73.5585 116.718 73.4834L116.211 73.7368Z" fill="white"/>
<path id="&#60;Path&#62;_62" d="M120.576 72.1556C120.604 72.1274 120.604 72.0429 120.548 72.0148L120.013 71.8176L120.126 71.2263C120.126 71.17 120.069 71.1418 120.013 71.17L119.14 71.6487L118.858 72.2682L116.211 73.7325L116.352 73.9859L118.999 72.5216L119.675 72.6342L120.576 72.1556Z" fill="white"/>
</g>
</g>
</g>
</g>
</g>
</g>
</g>
<defs>
<linearGradient id="paint0_linear_2020_909" x1="110.666" y1="94.507" x2="110.666" y2="-2.53685" gradientUnits="userSpaceOnUse">
<stop stop-color="#4A8BE0"/>
<stop offset="0.886" stop-color="white" stop-opacity="0"/>
</linearGradient>
</defs>
</svg>
